<svg width="185" height="186" xmlns="http://www.w3.org/2000/svg" xmlns:xlink="http://www.w3.org/1999/xlink" xml:space="preserve" overflow="hidden"><g transform="translate(-290 -351)"><path d="M171.51 86.7188 27.3646 86.7188 44.5156 69.5677C46.8281 67.2552 46.8281 63.5938 44.5156 61.474 42.2031 59.1615 38.5417 59.1615 36.4219 61.474L9.44271 88.4531C7.13021 90.7656 7.13021 94.4271 9.44271 96.5469L36.4219 123.526C37.5781 124.682 39.1198 125.26 40.4688 125.26 41.8177 125.26 43.3594 124.682 44.5156 123.526 46.8281 121.214 46.8281 117.552 44.5156 115.432L27.3646 98.2812 171.51 98.2812C174.786 98.2812 177.292 95.776 177.292 92.5 177.292 89.224 174.786 86.7188 171.51 86.7188Z" fill="#FFFFFF" transform="matrix(1 0 0 1.00541 290 351)"/></g></svg>