<svg width="186" height="186" xmlns="http://www.w3.org/2000/svg" xmlns:xlink="http://www.w3.org/1999/xlink" xml:space="preserve" overflow="hidden"><g transform="translate(-640 -351)"><path d="M653.562 449.812 798.487 449.812 781.244 467.056C778.919 469.381 778.919 473.062 781.244 475.194 783.569 477.519 787.25 477.519 789.381 475.194L816.506 448.069C818.831 445.744 818.831 442.062 816.506 439.931L789.381 412.806C788.219 411.644 786.669 411.062 785.312 411.062 783.956 411.062 782.406 411.644 781.244 412.806 778.919 415.131 778.919 418.812 781.244 420.944L798.487 438.188 653.562 438.188C650.269 438.188 647.75 440.706 647.75 444 647.75 447.294 650.269 449.812 653.562 449.812Z" fill="#FFFFFF"/></g></svg>