<svg width="185" height="185" xmlns="http://www.w3.org/2000/svg" xmlns:xlink="http://www.w3.org/1999/xlink" xml:space="preserve" overflow="hidden"><g transform="translate(-279 -127)"><path d="M371.5 242.625C358.781 242.625 348.375 232.219 348.375 219.5 348.375 206.781 358.781 196.375 371.5 196.375 384.219 196.375 394.625 206.781 394.625 219.5 394.625 232.219 384.219 242.625 371.5 242.625ZM423.531 205.047C422.375 200.807 420.641 196.76 418.521 193.099L423.339 178.646 412.354 167.661 397.901 172.479C394.047 170.359 390 168.625 385.76 167.469L379.208 153.979 363.792 153.979 357.047 167.469C352.807 168.625 348.76 170.359 345.099 172.479L330.646 167.661 319.661 178.646 324.479 193.099C322.359 196.953 320.625 201 319.469 205.24L305.979 211.792 305.979 227.208 319.469 233.953C320.625 238.193 322.359 242.24 324.479 245.901L319.661 260.354 330.646 271.339 345.099 266.521C348.953 268.641 353 270.375 357.24 271.531L363.984 285.021 379.401 285.021 386.146 271.531C390.385 270.375 394.432 268.641 398.094 266.521L412.547 271.339 423.531 260.354 418.714 245.901C420.833 242.047 422.568 238 423.724 233.76L437.214 227.016 437.214 211.599 423.531 205.047Z" fill="#FFFFFF"/></g></svg>