<svg width="161" height="161" xmlns="http://www.w3.org/2000/svg" xmlns:xlink="http://www.w3.org/1999/xlink" xml:space="preserve" overflow="hidden"><g transform="translate(-543 -151)"><path d="M601.698 162.74 601.698 288.118 616.59 273.226C618.623 271.332 621.807 271.444 623.701 273.477 625.502 275.409 625.502 278.405 623.701 280.337L600.222 303.816C598.258 305.778 595.076 305.778 593.111 303.816L569.632 280.337C567.67 278.372 567.67 275.19 569.632 273.226 571.596 271.264 574.779 271.264 576.743 273.226L591.635 288.118 591.635 162.74C591.635 159.961 593.888 157.708 596.667 157.708 599.445 157.708 601.698 159.961 601.698 162.74Z" fill="#FFFFFF"/><path d="M655.365 300.26 655.365 174.882 670.257 189.774C672.151 191.807 675.335 191.919 677.368 190.025 679.401 188.131 679.513 184.947 677.619 182.914 677.538 182.828 677.454 182.744 677.368 182.663L653.889 159.184C651.924 157.222 648.742 157.222 646.778 159.184L623.299 182.663C621.337 184.628 621.337 187.81 623.299 189.774 625.263 191.736 628.445 191.736 630.41 189.774L645.302 174.882 645.302 300.26C645.302 303.039 647.555 305.292 650.333 305.292 653.112 305.292 655.365 303.039 655.365 300.26Z" fill="#FFFFFF"/></g></svg>